<svg xmlns="http://www.w3.org/2000/svg" width="1200" height="675" viewBox="0 0 1200 675" fill="none">

    <defs>
      <linearGradient id="bg" x1="0" y1="0" x2="1" y2="1">
        <stop offset="0%" stop-color="#0F172A"/>
        <stop offset="100%" stop-color="#1E293B"/>
      </linearGradient>
      <linearGradient id="glass" x1="0" y1="0" x2="1" y2="1">
        <stop offset="0%" stop-color="rgba(255,255,255,0.18)"/>
        <stop offset="100%" stop-color="rgba(255,255,255,0.06)"/>
      </linearGradient>
      <linearGradient id="accent" x1="0" y1="0" x2="1" y2="1">
        <stop offset="0%" stop-color="#CBD5E1"/>
        <stop offset="100%" stop-color="#ffffff"/>
      </linearGradient>
      <filter id="shadow" x="-50%" y="-50%" width="200%" height="200%">
        <feDropShadow dx="0" dy="10" stdDeviation="18" flood-color="#000000" flood-opacity="0.16"/>
      </filter>
      <filter id="soft" x="-50%" y="-50%" width="200%" height="200%">
        <feGaussianBlur stdDeviation="30"/>
      </filter>
    </defs>
    

    <rect width="1200" height="675" rx="36" fill="url(#bg)"/>
    <circle cx="190" cy="150" r="140" fill="#CBD5E1" opacity="0.1" filter="url(#soft)"/><circle cx="930" cy="190" r="180" fill="#ffffff" opacity="0.08" filter="url(#soft)"/><circle cx="660" cy="550" r="160" fill="#1E293B" opacity="0.06" filter="url(#soft)"/>
    <g><line x1="0" y1="0" x2="0" y2="675" stroke="#FFFFFF" stroke-opacity="0.04"/><line x1="80" y1="0" x2="80" y2="675" stroke="#FFFFFF" stroke-opacity="0.04"/><line x1="160" y1="0" x2="160" y2="675" stroke="#FFFFFF" stroke-opacity="0.04"/><line x1="240" y1="0" x2="240" y2="675" stroke="#FFFFFF" stroke-opacity="0.04"/><line x1="320" y1="0" x2="320" y2="675" stroke="#FFFFFF" stroke-opacity="0.04"/><line x1="400" y1="0" x2="400" y2="675" stroke="#FFFFFF" stroke-opacity="0.04"/><line x1="480" y1="0" x2="480" y2="675" stroke="#FFFFFF" stroke-opacity="0.04"/><line x1="560" y1="0" x2="560" y2="675" stroke="#FFFFFF" stroke-opacity="0.04"/><line x1="640" y1="0" x2="640" y2="675" stroke="#FFFFFF" stroke-opacity="0.04"/><line x1="720" y1="0" x2="720" y2="675" stroke="#FFFFFF" stroke-opacity="0.04"/><line x1="800" y1="0" x2="800" y2="675" stroke="#FFFFFF" stroke-opacity="0.04"/><line x1="880" y1="0" x2="880" y2="675" stroke="#FFFFFF" stroke-opacity="0.04"/><line x1="960" y1="0" x2="960" y2="675" stroke="#FFFFFF" stroke-opacity="0.04"/><line x1="1040" y1="0" x2="1040" y2="675" stroke="#FFFFFF" stroke-opacity="0.04"/><line x1="1120" y1="0" x2="1120" y2="675" stroke="#FFFFFF" stroke-opacity="0.04"/><line x1="0" y1="0" x2="1200" y2="0" stroke="#FFFFFF" stroke-opacity="0.04"/><line x1="0" y1="80" x2="1200" y2="80" stroke="#FFFFFF" stroke-opacity="0.04"/><line x1="0" y1="160" x2="1200" y2="160" stroke="#FFFFFF" stroke-opacity="0.04"/><line x1="0" y1="240" x2="1200" y2="240" stroke="#FFFFFF" stroke-opacity="0.04"/><line x1="0" y1="320" x2="1200" y2="320" stroke="#FFFFFF" stroke-opacity="0.04"/><line x1="0" y1="400" x2="1200" y2="400" stroke="#FFFFFF" stroke-opacity="0.04"/><line x1="0" y1="480" x2="1200" y2="480" stroke="#FFFFFF" stroke-opacity="0.04"/><line x1="0" y1="560" x2="1200" y2="560" stroke="#FFFFFF" stroke-opacity="0.04"/><line x1="0" y1="640" x2="1200" y2="640" stroke="#FFFFFF" stroke-opacity="0.04"/></g>
    

    <g>
      <rect x="48" y="38" width="220" height="56" rx="18" fill="#FFFFFF" fill-opacity="0.14" stroke="#FFFFFF" stroke-opacity="0.18"/>
      <text x="72" y="74" font-family="Inter, Arial, sans-serif" font-size="28" font-weight="700" fill="#FFFFFF">📈 Executive</text>
    </g>
    

    <g filter="url(#shadow)">
      <rect x="70" y="120" width="1060" height="390" rx="36" fill="#FFFFFF" fill-opacity="0.1" stroke="#FFFFFF" stroke-opacity="0.18"/>
    </g>
    
<line x1="380" y1="220" x2="560" y2="180" stroke="#FFFFFF" stroke-opacity="0.35" stroke-width="10"/><line x1="560" y1="180" x2="740" y2="260" stroke="#FFFFFF" stroke-opacity="0.35" stroke-width="10"/><line x1="560" y1="180" x2="540" y2="380" stroke="#FFFFFF" stroke-opacity="0.35" stroke-width="10"/><line x1="740" y1="260" x2="780" y2="420" stroke="#FFFFFF" stroke-opacity="0.35" stroke-width="10"/><circle cx="380" cy="220" r="24" fill="#FFFFFF" fill-opacity="0.85"/><circle cx="560" cy="180" r="24" fill="#CBD5E1" fill-opacity="1"/><circle cx="740" cy="260" r="24" fill="#FFFFFF" fill-opacity="0.85"/><circle cx="540" cy="380" r="24" fill="#FFFFFF" fill-opacity="0.85"/><circle cx="780" cy="420" r="24" fill="#CBD5E1" fill-opacity="1"/>

    <g>
      <rect x="44" y="560" width="180" height="56" rx="18" fill="#FFFFFF" fill-opacity="0.12" stroke="#FFFFFF" stroke-opacity="0.14"/>
      <circle cx="76" cy="588" r="8" fill="#FFFFFF" fill-opacity="0.9"/>
      <rect x="94" y="578" width="92" height="20" rx="10" fill="#FFFFFF" fill-opacity="0.28"/>
    </g>
    

      <g>
        <rect x="950" y="565" width="150" height="44" rx="16" fill="#FFFFFF" fill-opacity="0.10" stroke="#FFFFFF" stroke-opacity="0.14"/>
        <rect x="980" y="579" width="90" height="16" rx="8" fill="#FFFFFF" fill-opacity="0.24"/>
      </g>
    
</svg>